<svg xmlns="http://www.w3.org/2000/svg" viewBox="0 0 128 128"><defs><style>.a,.c{fill:#16181d;}.b{fill:#ffcd05;}.c{stroke:#ffcd05;stroke-miterlimit:10;stroke-width:2px;}</style></defs><rect class="a" x="8" y="8" width="120" height="120" rx="12"/><rect class="b" width="120" height="120" rx="12"/><path class="c" d="M8,8H20A12,12,0,0,1,32,20V56a0,0,0,0,1,0,0H8a0,0,0,0,1,0,0V8A0,0,0,0,1,8,8Z"/><path class="c" d="M32,32H44A12,12,0,0,1,56,44V56a0,0,0,0,1,0,0H32a0,0,0,0,1,0,0V32A0,0,0,0,1,32,32Z"/><path class="c" d="M64,8H88a0,0,0,0,1,0,0V32a0,0,0,0,1,0,0H76A12,12,0,0,1,64,20V8A0,0,0,0,1,64,8Z"/><path class="c" d="M76,32H88a0,0,0,0,1,0,0V56a0,0,0,0,1,0,0H64a0,0,0,0,1,0,0V44A12,12,0,0,1,76,32Z"/><path class="c" d="M88,8h12a12,12,0,0,1,12,12V44a12,12,0,0,1-12,12H88a0,0,0,0,1,0,0V8A0,0,0,0,1,88,8Z"/><path class="c" d="M8,64H20A12,12,0,0,1,32,76v36a0,0,0,0,1,0,0h0A24,24,0,0,1,8,88V64A0,0,0,0,1,8,64Z"/><path class="c" d="M32,96H44a12,12,0,0,1,12,12v4a0,0,0,0,1,0,0H32a0,0,0,0,1,0,0V96A0,0,0,0,1,32,96Z"/><path class="c" d="M32,80H56a0,0,0,0,1,0,0v4A12,12,0,0,1,44,96H32a0,0,0,0,1,0,0V80A0,0,0,0,1,32,80Z"/><path class="c" d="M76,64H88a0,0,0,0,1,0,0v36a12,12,0,0,1-12,12H64a0,0,0,0,1,0,0V76A12,12,0,0,1,76,64Z"/><path class="c" d="M88,96h24a0,0,0,0,1,0,0v16a0,0,0,0,1,0,0H100a12,12,0,0,1-12-12V96A0,0,0,0,1,88,96Z"/><path class="c" d="M100,80h12a0,0,0,0,1,0,0v4a12,12,0,0,1-12,12H88a0,0,0,0,1,0,0V92A12,12,0,0,1,100,80Z"/></svg>